<svg width="20" height="18" viewBox="0 0 20 18" fill="none" xmlns="http://www.w3.org/2000/svg">
    <path d="M1.09769 5.06662H12.1595V3.04004H1.09769C0.491482 3.04004 0 3.49372 0 4.05331C0 4.6129 0.491482 5.06662 1.09769 5.06662Z" fill="black"/>
    <path d="M1.09769 9.62619H12.1595V7.59961H1.09769C0.491482 7.59961 0 8.05329 0 8.61292C0 9.17255 0.491482 9.62619 1.09769 9.62619Z" fill="black"/>
    <path d="M1.11053 12.1592C0.49723 12.1592 0 12.6129 0 13.1725C0 13.7321 0.49723 14.1858 1.11053 14.1858H9.41547C8.81564 13.5204 8.81564 13.2194 8.81564 13.1725C8.81564 13.0926 8.81564 12.7203 9.03039 12.1592H1.11053Z" fill="black"/>
    <path d="M19.7602 11.6529C19.1051 11.0106 18.2403 11.6529 17.7336 12.1595L16.7203 13.1728L16.1622 13.7566V1.39558C16.1622 0.624787 15.9416 0 15.1554 0C14.3691 0 14.098 0.62483 14.098 1.39558V13.7566L12.563 12.178C12.0071 11.633 11.1968 11.1078 10.6409 11.6529C10.1343 12.1496 10.5919 13.1344 11.1479 13.6794L14.1876 17.226C14.7424 17.7701 15.6578 17.7719 16.2142 17.226L19.254 13.6794C19.8099 13.1344 20.3161 12.1979 19.7602 11.6529Z" fill="black"/>
</svg>
